<svg width="29" height="26" xmlns="http://www.w3.org/2000/svg"><path d="M28.47 23.35l-7.94-7.12a9.4 9.4 0 0 0 2.17-6C22.68 4.6 17.6.03 11.31 0c-3-.01-5.9 1.05-8.02 2.96A9.59 9.59 0 0 0 0 10.16c.03 5.63 5.11 10.2 11.4 10.22 2.41.01 4.77-.68 6.7-1.97h.02l7.93 7.11c.43.4 1.07.57 1.67.43.6-.14 1.07-.56 1.23-1.1a1.43 1.43 0 0 0-.48-1.5zm-17.09-5c-5.02-.03-9.09-3.68-9.11-8.19A7.67 7.67 0 0 1 4.9 4.41a9.55 9.55 0 0 1 6.42-2.37c5.02.02 9.1 3.67 9.11 8.18a7.67 7.67 0 0 1-2.63 5.75 9.57 9.57 0 0 1-6.42 2.37z" fill="#8E8E93" fill-rule="evenodd"/></svg>