<svg enable-background="new 0 0 383.1 120.8" viewBox="0 0 383.1 120.8" xmlns="http://www.w3.org/2000/svg"><path d="m165.9 52.2h-9.6l-1.5 8.1h6.4l-1.3 7.2h-6.4l-1.5 8.6h9.6l-1.3 7.2h-19.6l6.8-37.7h19.6zm-41.6 22.7c-.2 1 .6 1.6 1.8 1.6 1.1 0 2.1-.6 2.3-1.6l5.3-29.4h9.6l-5.6 30.5c-.7 3.8-6.1 7.9-13 7.9s-11.4-4-10.7-7.9l5.5-30.5h10zm-25.2 1.1c1.1 0 1.8-.4 2-1.5l3.7-20.4c.2-1.1-.3-1.5-1.5-1.5h-1.9l-4.2 23.4zm7-30.5c4.8 0 9.3 1.9 8.3 7.3l-4.2 23c-1 5.4-6.2 7.3-11 7.3h-13.3l6.8-37.7zm-31.5 16c1.1 0 1.8-.4 1.9-1.5l1.1-5.8c.2-1.1-.3-1.5-1.4-1.5h-2.6l-1.6 8.8zm4.2-16c4.8 0 9.3 2.1 8.4 6.9l-1.5 8.2c-.3 1.8-1.9 3.4-4.6 4.4 2.4 1 3.6 2.6 3.3 4.4l-1.4 7.5c-.4 2.4-.2 4.5.1 6.3h-9.3c-.5-1.6-.5-3.9-.2-5.8l1.4-7.7c.1-.8-.4-1.5-1.8-1.5h-2.4l-2.7 15h-9.9l6.8-37.7zm-37 29.4c-.2 1 .6 1.6 1.8 1.6 1.1 0 2.1-.6 2.3-1.6l5.3-29.4h9.6l-5.6 30.5c-.7 3.8-6.1 7.9-13 7.9s-11.4-4-10.7-7.9l5.5-30.5h10zm-23.3-16.8c1.3 0 2.2-.5 2.5-1.8l1.5-8.2c.2-1.3-.5-1.8-1.8-1.8h-1.7l-2.1 11.8zm5.4-20.5c5.9 0 11.5 2.5 10.5 8.3l-2.3 12.5c-1.1 5.8-7.6 8.3-13.5 8.3h-3.4l-3 16.4h-12.2l8.2-45.5z" fill="#d5a619"/><path d="m374.8 45.5h8.3l-6.6 37.6h-8.1l-4.2-18.1-3.2 18.1h-8.3l6.6-37.6h8.5l3.8 18.5zm-30.7 6.7c-1.1 0-2 .6-2.2 1.6l-3.7 21c-.2 1 .6 1.6 1.6 1.6s2-.6 2.1-1.6l3.7-21c.3-1-.5-1.6-1.5-1.6m-5.6 31.6c-6.5 0-10.5-4.5-9.8-8.3l3.9-22.4c.7-3.8 6.3-8.3 12.8-8.3 6.4 0 10.5 4.5 9.8 8.3l-3.9 22.4c-.7 3.8-6.4 8.3-12.8 8.3m-23.6-.7 6.6-37.6h9.3l-6.6 37.6zm-13.9.7c-7.1 0-10.7-3.8-9.9-8.4l.8-4.5h8.2l-.5 3c-.3 1.5.6 2.5 2.4 2.5 1.7 0 2.7-.8 3-2.4.5-3.1-2-4.7-5.6-8.3-3.4-3.5-5-7-4.2-11.2.9-5.1 5.5-9.6 13-9.6 6.2 0 9.5 4.5 8.9 8.3l-.8 4.6h-8.1l.6-3.3c.2-1.3-.6-2.2-1.8-2.2s-2.6.8-2.8 2.2c-.5 3.1.4 4.1 4.7 8.3 3.7 3.6 5.8 7.5 5.1 11.6-1.1 5-5.8 9.4-13 9.4m-15.8-38.3h8.3l-6.6 37.6h-8.1l-4.3-18.1-3.2 18.1h-8.3l6.6-37.6h8.5l3.8 18.5zm-18.9 6.7h-9l-1.4 8.1h6l-1.3 7.1h-6l-1.5 8.6h9l-1.3 7.1h-18.3l6.6-37.6h18.3zm-45.6 0 3.9-6.7h22.2l-1.2 6.7h-8.4l-5.5 30.9h-9.3l5.4-30.9zm-23.1-6.7h9.3l1.1 9.9 5-9.9h8.9l-10.4 17.8 3.4 19.8h-9.3l-1.3-9.9-5.1 9.9h-8.9l10.6-18.8zm-3.1 6.7h-9l-1.4 8.1h6l-1.3 7.1h-6l-1.4 8.6h10.7l-4 7.1h-17.2l6.6-37.6h18.3z"/></svg>