<?xml version="1.0" encoding="utf-8"?>
<!-- Generator: Adobe Illustrator 21.1.0, SVG Export Plug-In . SVG Version: 6.00 Build 0)  -->
<svg version="1.1" id="Layer_1" xmlns="http://www.w3.org/2000/svg" xmlns:xlink="http://www.w3.org/1999/xlink" x="0px" y="0px"
	 viewBox="0 0 383.1 120.8" style="enable-background:new 0 0 383.1 120.8;" xml:space="preserve">
<style type="text/css">
	.st0{fill:#D5A619;}
</style>
<g>
	<g>
		<g>
			<path class="st0" d="M165.9,52.2h-9.6l-1.5,8.1h6.4l-1.3,7.2h-6.4l-1.5,8.6h9.6l-1.3,7.2h-19.6l6.8-37.7h19.6L165.9,52.2z
				 M124.3,74.9c-0.2,1,0.6,1.6,1.8,1.6c1.1,0,2.1-0.6,2.3-1.6l5.3-29.4h9.6L137.7,76c-0.7,3.8-6.1,7.9-13,7.9
				c-6.9,0-11.4-4-10.7-7.9l5.5-30.5h10L124.3,74.9z M99.1,76c1.1,0,1.8-0.4,2-1.5l3.7-20.4c0.2-1.1-0.3-1.5-1.5-1.5h-1.9L97.2,76
				H99.1z M106.1,45.5c4.8,0,9.3,1.9,8.3,7.3l-4.2,23c-1,5.4-6.2,7.3-11,7.3H85.9l6.8-37.7L106.1,45.5L106.1,45.5z M74.6,61.5
				c1.1,0,1.8-0.4,1.9-1.5l1.1-5.8c0.2-1.1-0.3-1.5-1.4-1.5h-2.6L72,61.5H74.6z M78.8,45.5c4.8,0,9.3,2.1,8.4,6.9l-1.5,8.2
				c-0.3,1.8-1.9,3.4-4.6,4.4c2.4,1,3.6,2.6,3.3,4.4L83,76.9c-0.4,2.4-0.2,4.5,0.1,6.3h-9.3c-0.5-1.6-0.5-3.9-0.2-5.8l1.4-7.7
				c0.1-0.8-0.4-1.5-1.8-1.5h-2.4l-2.7,15h-9.9L65,45.5C65,45.5,78.8,45.5,78.8,45.5z M41.8,74.9c-0.2,1,0.6,1.6,1.8,1.6
				c1.1,0,2.1-0.6,2.3-1.6l5.3-29.4h9.6L55.2,76c-0.7,3.8-6.1,7.9-13,7.9s-11.4-4-10.7-7.9L37,45.5h10L41.8,74.9z M18.5,58.1
				c1.3,0,2.2-0.5,2.5-1.8l1.5-8.2c0.2-1.3-0.5-1.8-1.8-1.8H19l-2.1,11.8H18.5z M23.9,37.6c5.9,0,11.5,2.5,10.5,8.3l-2.3,12.5
				c-1.1,5.8-7.6,8.3-13.5,8.3h-3.4l-3,16.4H0l8.2-45.5H23.9z"/>
		</g>
		<path d="M374.8,45.5h8.3l-6.6,37.6h-8.1L364.2,65L361,83.1h-8.3l6.6-37.6h8.5l3.8,18.5L374.8,45.5z M344.1,52.2
			c-1.1,0-2,0.6-2.2,1.6l-3.7,21c-0.2,1,0.6,1.6,1.6,1.6s2-0.6,2.1-1.6l3.7-21C345.9,52.8,345.1,52.2,344.1,52.2 M338.5,83.8
			c-6.5,0-10.5-4.5-9.8-8.3l3.9-22.4c0.7-3.8,6.3-8.3,12.8-8.3c6.4,0,10.5,4.5,9.8,8.3l-3.9,22.4C350.6,79.3,344.9,83.8,338.5,83.8
			 M314.9,83.1l6.6-37.6h9.3l-6.6,37.6H314.9z M301,83.8c-7.1,0-10.7-3.8-9.9-8.4l0.8-4.5h8.2l-0.5,3c-0.3,1.5,0.6,2.5,2.4,2.5
			c1.7,0,2.7-0.8,3-2.4c0.5-3.1-2-4.7-5.6-8.3c-3.4-3.5-5-7-4.2-11.2c0.9-5.1,5.5-9.6,13-9.6c6.2,0,9.5,4.5,8.9,8.3l-0.8,4.6h-8.1
			l0.6-3.3c0.2-1.3-0.6-2.2-1.8-2.2c-1.2,0-2.6,0.8-2.8,2.2c-0.5,3.1,0.4,4.1,4.7,8.3c3.7,3.6,5.8,7.5,5.1,11.6
			C312.9,79.4,308.2,83.8,301,83.8 M285.2,45.5h8.3l-6.6,37.6h-8.1L274.5,65l-3.2,18.1H263l6.6-37.6h8.5l3.8,18.5L285.2,45.5z
			 M266.3,52.2h-9l-1.4,8.1h6l-1.3,7.1h-6l-1.5,8.6h9l-1.3,7.1h-18.3l6.6-37.6h18.3L266.3,52.2z M220.7,52.2l3.9-6.7h22.2l-1.2,6.7
			h-8.4l-5.5,30.9h-9.3l5.4-30.9C227.8,52.2,220.7,52.2,220.7,52.2z M197.6,45.5h9.3l1.1,9.9l5-9.9h8.9l-10.4,17.8l3.4,19.8h-9.3
			l-1.3-9.9l-5.1,9.9h-8.9l10.6-18.8L197.6,45.5z M194.5,52.2h-9l-1.4,8.1h6l-1.3,7.1h-6l-1.4,8.6h10.7l-4,7.1h-17.2l6.6-37.6h18.3
			L194.5,52.2z"/>
	</g>
</g>
</svg>
